<?xml version="1.0" encoding="UTF-8"?>
<!DOCTYPE svg PUBLIC "-//W3C//DTD SVG 1.1//EN" "http://www.w3.org/Graphics/SVG/1.1/DTD/svg11.dtd">
<!-- Creator: CorelDRAW X7 -->
<svg xmlns="http://www.w3.org/2000/svg" xml:space="preserve" width="210mm" height="297mm" version="1.1" style="shape-rendering:geometricPrecision; text-rendering:geometricPrecision; image-rendering:optimizeQuality; fill-rule:evenodd; clip-rule:evenodd"
viewBox="0 0 2100000 2970000"
 xmlns:xlink="http://www.w3.org/1999/xlink">
 <defs>
  <style type="text/css">
   <![CDATA[
    .fil0 {fill:#FEFEFE}
   ]]>
  </style>
 </defs>
 <g id="Capa_x0020_1">
  <metadata id="CorelCorpID_0Corel-Layer"/>
  <g id="_2591839611456">
   <path class="fil0" d="M1518222 1293681l-42463 108475c50120,25487 97919,47295 127389,-5009 20977,-67044 -45680,-84678 -84926,-103466z"/>
   <path class="fil0" d="M1053812 1326470c175000,268933 308313,161102 404561,104997 70125,43103 169599,68459 195333,-87241 184777,-100879 210517,-236512 255552,-367505 40600,-48322 89300,-52622 114264,20076 -43490,307543 -244486,410089 -432354,509941l61740 493721 -467861 83380 -75667 -528088 -123149 -128551 67581 -100730z"/>
   <circle class="fil0" cx="1295434" cy="1256730" r="191470"/>
   <path class="fil0" d="M593134 1293681l42715 108475c-50418,25487 -98501,47295 -128146,-5009 -21101,-67044 45951,-84678 85431,-103466z"/>
   <path class="fil0" d="M960856 1445039c-128118,109778 -229822,31449 -307517,-13572 -70542,43103 -170607,68459 -196495,-87241 -185876,-100879 -211768,-236512 -257071,-367505 -40841,-48322 -89831,-52622 -114944,20076 43749,307543 245941,410089 434926,509941l-52715 491881 458347 83679 79020 -526547 39517 -41006 -83068 -69706z"/>
   <ellipse class="fil0" cx="817247" cy="1256730" rx="192608" ry="191470"/>
  </g>
 </g>
</svg>
