<?xml version="1.0" encoding="UTF-8"?>
<!DOCTYPE svg PUBLIC "-//W3C//DTD SVG 1.1//EN" "http://www.w3.org/Graphics/SVG/1.1/DTD/svg11.dtd">
<!-- Creator: CorelDRAW X7 -->
<svg xmlns="http://www.w3.org/2000/svg" xml:space="preserve" width="210mm" height="297mm" version="1.1" style="shape-rendering:geometricPrecision; text-rendering:geometricPrecision; image-rendering:optimizeQuality; fill-rule:evenodd; clip-rule:evenodd"
viewBox="0 0 2100000 2970000"
 xmlns:xlink="http://www.w3.org/1999/xlink">
 <defs>
  <style type="text/css">
   <![CDATA[
    .str0 {stroke:#FEFEFE;stroke-width:100000}
    .fil0 {fill:none}
   ]]>
  </style>
 </defs>
 <g id="Capa_x0020_1">
  <metadata id="CorelCorpID_0Corel-Layer"/>
  <g id="_2591839628512">
   <g>
    <path class="fil0 str0" d="M1041086 468196c-12490,-97968 -108775,-89021 -139779,-28696 -66036,124657 -119107,232655 -183287,362866 -96452,205731 -107738,350221 -138851,525787l-55536 364718 -192540 361014 -209732 138919c-29136,27751 -61052,41614 -48532,94362 92262,172795 153054,267836 410084,279567 48756,9870 75289,-24682 96272,-64798 67883,-141933 143172,-267211 264743,-392485 98741,-77757 114165,-111079 146257,-211054 0,0 39427,-519838 38591,-919204 -20475,-63697 -36718,-66254 -70830,-82350 5555,-256603 83153,-427592 83140,-428646z"/>
    <path class="fil0 str0" d="M738059 1569780c37911,-159575 90398,-297112 98123,-522080 9564,-90566 50137,-155670 122646,-149960"/>
   </g>
   <g>
    <path class="fil0 str0" d="M1041094 468196c12839,-97968 111809,-89021 143679,-28696 67878,124657 122429,232655 188399,362866 99143,205731 110743,350221 142725,525787l57085 364718 197910 361014 215583 138919c29949,27751 62755,41614 49886,94362 -94836,172795 -157324,267836 -421524,279567 -50115,9870 -77389,-24682 -98957,-64798 -69777,-141933 -147166,-267211 -272128,-392485 -101495,-77757 -117350,-111079 -150337,-211054 0,0 -40526,-519838 -39668,-919204 21047,-63697 37743,-66254 72806,-82350 -5709,-256603 -85471,-427592 -85459,-428646z"/>
    <path class="fil0 str0" d="M1352575 1569780c-38969,-159575 -92921,-297112 -100861,-522080 -9831,-90566 -51535,-155670 -126067,-149960"/>
   </g>
  </g>
 </g>
</svg>
